<svg width="56.693" height="56.693" xmlns="http://www.w3.org/2000/svg">

 <g>
  <title>background</title>
  <rect fill="none" id="canvas_background" height="402" width="582" y="-1" x="-1"/>
 </g>
 <g>
  <title>Layer 1</title>
  <polygon fill="#00d8ff" id="svg_2" points="29.019,33.741 32.774,33.741 32.421,37.7 29.019,38.62 29.015,38.62 25.616,37.7 25.392,35.161 22.327,35.161    22.765,40.06 29.015,41.794 29.019,41.792 35.272,40.06 36.108,30.692 29.019,30.692 24.991,30.692 24.712,27.569 29.019,27.569    36.386,27.569 36.659,24.519 29.019,24.519 21.378,24.519 22.202,33.741  "/>
  <path fill="#00d8ff" id="svg_3" d="m28.347,5.157c-13.6,0 -24.625,11.027 -24.625,24.625c0,13.6 11.024,24.623 24.625,24.623c13.602,0 24.625,-11.023 24.625,-24.623c0,-13.598 -11.024,-24.625 -24.625,-24.625zm6.875,7.603l1.551,0l0,3.107l2.18,0l0,1.531l-3.73,0l0,-4.638l-0.001,0zm-5.993,0l1.615,0l0.994,1.629l0.994,-1.629l1.617,0l0,4.639l-1.545,0l0,-2.299l-1.066,1.648l-0.025,0l-1.068,-1.648l0,2.299l-1.516,0l0,-4.639zm-4.96,0l4.281,0l0,1.539l-1.367,0l0,3.1l-1.549,0l0,-3.1l-1.365,0l0,-1.539zm-5.193,0l1.55,0l0,1.533l1.418,0l0,-1.533l1.551,0l0,4.639l-1.551,0l0,-1.553l-1.418,0l0,1.553l-1.55,0l0,-4.639zm19.902,31.548l-9.965,2.764l-9.954,-2.766l-2.218,-24.872l24.355,0l-2.218,24.874z"/>
 </g>
</svg>