<svg width="512" height="512" xmlns="http://www.w3.org/2000/svg">
 <title/>

 <g>
  <title>background</title>
  <rect fill="none" id="canvas_background" height="402" width="582" y="-1" x="-1"/>
 </g>
 <g>
  <title>Layer 1</title>
  <path fill="#00d8ff" id="svg_1" d="m449,30.48l0,221.46l-18.75,0l0,-215.37c0,-9 -6.71,-16.25 -15,-16.25l-261.52,0l18.58,-20.32l248.56,0c15.53,0 28.13,13.65 28.13,30.48z"/>
  <polygon fill="#00d8ff" id="svg_2" points="82.41158926486969,99.3499984741211 82.41158926486969,251.94000244140625 63.661585450172424,251.94000244140625 63.661585450172424,119.87000274658203 82.41158926486969,99.3499984741211 "/>
  <path fill="#00d8ff" id="svg_3" d="m172.31,0l0,88c0,17.59 -13.05,31.85 -29.12,31.85l-80.46,0l18.75,-20.5l72.25,-79l18.58,-20.35z"/>
  <path fill="#00d8ff" id="svg_4" d="m490.31,272.25l-468.62,0c-12,0 -21.69,9.1 -21.69,20.32l0,77.21c0,11.22 9.71,20.32 21.69,20.32l468.62,0c12,0 21.69,-9.1 21.69,-20.32l0,-77.21c0,-11.22 -9.71,-20.32 -21.69,-20.32zm-321.12,67.66a66.92,66.92 0 0 1 -0.4,8a24.93,24.93 0 0 1 -1.8,6.67a18,18 0 0 1 -7.76,8.86a25.52,25.52 0 0 1 -13.16,3.17a27.35,27.35 0 0 1 -11.68,-2.2a17.16,17.16 0 0 1 -7.54,-7.15a25.73,25.73 0 0 1 -2.44,-6.06a24.67,24.67 0 0 1 -1,-6.53a6.18,6.18 0 0 1 6.54,-6.77a5.26,5.26 0 0 1 4.18,1.6a11.13,11.13 0 0 1 2.16,5a47.51,47.51 0 0 0 1.6,5.78a8.63,8.63 0 0 0 2.68,3.71a8.17,8.17 0 0 0 5.36,1.55q9.26,0 9.26,-13.58l0,-38.15c0,-2.81 0.61,-4.93 1.85,-6.34a6.37,6.37 0 0 1 5,-2.11a6.57,6.57 0 0 1 5.15,2.11c1.27,1.41 1.9,3.53 1.9,6.34l0.1,36.1zm64.27,16.09a21.33,21.33 0 0 1 -9.42,7.8a35.29,35.29 0 0 1 -14.71,2.82q-10.2,0 -16.83,-3.85a22.5,22.5 0 0 1 -7.63,-7.4a16.81,16.81 0 0 1 -2.94,-9a6.1,6.1 0 0 1 6.25,-6.16a5.32,5.32 0 0 1 3.74,1.41a11.24,11.24 0 0 1 2.61,4.18a27.23,27.23 0 0 0 2.84,5.5a11.52,11.52 0 0 0 4.3,3.65a16,16 0 0 0 7.29,1.43q6.19,0 10.08,-2.89a8.7,8.7 0 0 0 3.87,-7.22a7.62,7.62 0 0 0 -2.09,-5.57a13.46,13.46 0 0 0 -5.4,-3.26c-2.21,-0.75 -5.17,-1.55 -8.86,-2.4a65,65 0 0 1 -12.43,-4.04a20.1,20.1 0 0 1 -7.95,-6.35a16.53,16.53 0 0 1 -2.93,-10a17.11,17.11 0 0 1 3.1,-10.1a19.58,19.58 0 0 1 9,-6.79a36.76,36.76 0 0 1 13.81,-2.37a34.23,34.23 0 0 1 11,1.57a23.25,23.25 0 0 1 7.68,4.18a17.49,17.49 0 0 1 4.47,5.48a12.6,12.6 0 0 1 1.41,5.59a6.6,6.6 0 0 1 -1.77,4.49a5.62,5.62 0 0 1 -4.39,2a5,5 0 0 1 -3.64,-1.2a16.41,16.41 0 0 1 -2.71,-3.93a17.59,17.59 0 0 0 -4.51,-6.08q-2.62,-2.19 -8.46,-2.19a14.61,14.61 0 0 0 -8.72,2.38c-2.2,1.58 -3.31,3.48 -3.31,5.71a5.83,5.83 0 0 0 1.13,3.57a9.44,9.44 0 0 0 3.1,2.58a20.56,20.56 0 0 0 4,1.69c1.34,0.41 3.57,1 6.67,1.79a104.62,104.62 0 0 1 10.55,3a32.08,32.08 0 0 1 8,4a16.46,16.46 0 0 1 5.17,5.95a19.1,19.1 0 0 1 1.85,8.81a20.2,20.2 0 0 1 -3.22,11.22zm77.2,-10.57a31.27,31.27 0 0 1 -6.49,11.32a28.25,28.25 0 0 1 -10.62,7.34a38.42,38.42 0 0 1 -14.43,2.53a38,38 0 0 1 -14.47,-2.6a28.68,28.68 0 0 1 -10.65,-7.38a31.28,31.28 0 0 1 -6.46,-11.42a46,46 0 0 1 -2.19,-14.43a44.57,44.57 0 0 1 2.28,-14.57a31.26,31.26 0 0 1 6.6,-11.28a28.76,28.76 0 0 1 10.53,-7.12a38,38 0 0 1 14.1,-2.46q10.73,0 18.4,4.34a28.2,28.2 0 0 1 11.63,12.36a42.2,42.2 0 0 1 3.95,18.83a46.11,46.11 0 0 1 -2.18,14.52l0,0.02zm71.95,12.12q0,9.08 -7.52,9.07a10,10 0 0 1 -3.38,-0.54a8.68,8.68 0 0 1 -2.82,-1.71a16.34,16.34 0 0 1 -2.44,-2.75c-0.76,-1.05 -1.51,-2.12 -2.26,-3.22l-26.19,-40.16l0,40.37q0,4 -1.83,6a6.51,6.51 0 0 1 -9.45,0a8.78,8.78 0 0 1 -1.78,-5.95l0,-53.2a15,15 0 0 1 0.75,-5.31a7.59,7.59 0 0 1 3,-3.46a8.08,8.08 0 0 1 4.46,-1.33a7.65,7.65 0 0 1 3.22,0.61a7.48,7.48 0 0 1 2.35,1.64a16.23,16.23 0 0 1 2.07,2.68c0.71,1.1 1.44,2.24 2.19,3.43l26.83,40.61l0,-41q0,-4 1.72,-6a5.77,5.77 0 0 1 4.63,-2a6,6 0 0 1 4.75,2q1.72,2 1.73,6l-0.03,54.22z"/>
  <path fill="#00d8ff" id="svg_5" d="m289.25,309.29a19.13,19.13 0 0 0 -10.41,-2.84a18.84,18.84 0 0 0 -7.73,1.57a17,17 0 0 0 -6.11,4.58a22,22 0 0 0 -4,7.69a34.64,34.64 0 0 0 -1.48,10.5a35.45,35.45 0 0 0 1.48,10.62a21.89,21.89 0 0 0 4.18,7.88a17.56,17.56 0 0 0 6.2,4.67a19.62,19.62 0 0 0 17.54,-1.13a18.48,18.48 0 0 0 7.14,-8.27a32,32 0 0 0 2.65,-13.77a32.32,32.32 0 0 0 -2.44,-13.11a18.28,18.28 0 0 0 -7.02,-8.39z"/>
  <path fill="#00d8ff" id="svg_6" d="m439.76,400.25c-5.18,0 -9.38,4.55 -9.38,10.16l0,65c0,9 -6.71,16.25 -15,16.25l-318.76,0c-8.29,0 -15,-7.27 -15,-16.25l0,-65c0,-5.61 -4.2,-10.16 -9.38,-10.16s-9.37,4.55 -9.37,10.16l0,71.11c0,16.83 12.6,30.48 28.13,30.48l330,0c15.52,0 28.12,-13.65 28.12,-30.48l0,-71.11c0.01,-5.61 -4.18,-10.16 -9.36,-10.16z"/>
 </g>
</svg>